<svg id="Layer_1" data-name="Layer 1" xmlns="http://www.w3.org/2000/svg" width="32" height="32" viewBox="0 0 32 32"><defs><style>.cls-1{fill:#fff;}</style></defs><path class="cls-1" d="M-.08,0h32V32h-32Zm8.3,24.69c.3,1,.49,1.8.8,2.57a21.69,21.69,0,0,0,1.47,3.12c.16.26.84.2,1.29.29a5.1,5.1,0,0,0-.15-1.19,19.56,19.56,0,0,1-1-2.19c-.19-.76.11-1.29,1.11-1a3.7,3.7,0,0,0,1.62.08c2-.4,2.94.75,3.74,2.27a10.15,10.15,0,0,0,1.31,2.21c.3.33,1,.25,1.56.36A6.58,6.58,0,0,0,19.71,30a13.36,13.36,0,0,1-.91-2c-.26-1.19.64-1.51,1.56-1.77s1.4-.07,1.65.89a14.16,14.16,0,0,0,1.09,3.09c.21.4,1,.49,1.5.71,0-.42.11-1-.08-1.27-1-1.65,0-3.3-.05-4.94,0-.38.72-.73,1-1.15.85-1.09,2.17-2.13,2.38-3.35.29-1.64,1.84-2.28,2.15-3.74.07-.3.34-.56.35-.85.05-1.41,0-2.82.07-4.22a14,14,0,0,0-1.08-6.89,5.87,5.87,0,0,0-6.6-3.26c-3.7.71-5.44,2.44-5.59,5.56,0,.27-.08.54-.11.81-.1.79-.4,1-1.31,1a45.69,45.69,0,0,0-7.21-.07A8.72,8.72,0,0,0,4.1,10c-2.71,2.11-3.54,7.14-2,10.4,1.14-1.18.22-2.48.37-3.63s.2-2.47.29-3.71l.52,0a5.13,5.13,0,0,1,.25,1.25c-.09,1.56-.18,3.13-.41,4.68a8.32,8.32,0,0,1-.85,1.95c.91,2.88,1.89,6,2.87,9a1.18,1.18,0,0,0,.24.53c.37.27.78.49,1.17.73.09-.42.38-.92.24-1.24C5.9,28,6.44,26.37,8.22,24.69Z" transform="translate(0.08)"/><path d="M8.22,24.69C6.44,26.37,5.9,28,6.79,29.93c.14.32-.15.82-.24,1.24-.39-.24-.8-.46-1.17-.73a1.18,1.18,0,0,1-.24-.53c-1-3.08-2-6.16-2.87-9a8.32,8.32,0,0,0,.85-1.95c.23-1.55.32-3.12.41-4.68A5.13,5.13,0,0,0,3.28,13l-.52,0c-.09,1.24-.13,2.48-.29,3.71s.77,2.45-.37,3.63c-1.54-3.26-.71-8.29,2-10.4A8.72,8.72,0,0,1,8.56,8.53a45.69,45.69,0,0,1,7.21.07c.91.06,1.21-.17,1.31-1,0-.27.1-.54.11-.81.15-3.12,1.89-4.85,5.59-5.56a5.87,5.87,0,0,1,6.6,3.26,14,14,0,0,1,1.08,6.89c-.11,1.4,0,2.81-.07,4.22,0,.29-.28.55-.35.85-.31,1.46-1.86,2.1-2.15,3.74-.21,1.22-1.53,2.26-2.38,3.35-.32.42-1,.77-1,1.15,0,1.64-1,3.29.05,4.94.19.32.06.85.08,1.27-.52-.22-1.29-.31-1.5-.71A14.16,14.16,0,0,1,22,27.14c-.25-1-.79-1.13-1.65-.89s-1.82.58-1.56,1.77a13.36,13.36,0,0,0,.91,2A6.58,6.58,0,0,1,20,31.2c-.53-.11-1.26,0-1.56-.36a10.15,10.15,0,0,1-1.31-2.21c-.8-1.52-1.77-2.67-3.74-2.27a3.7,3.7,0,0,1-1.62-.08c-1-.28-1.3.25-1.11,1a19.56,19.56,0,0,0,1,2.19,5.1,5.1,0,0,1,.15,1.19c-.45-.09-1.13,0-1.29-.29A21.69,21.69,0,0,1,9,27.26C8.71,26.49,8.52,25.68,8.22,24.69ZM18.86,22.3c-.62,1.21-.47,1.55.88,1.65a1.48,1.48,0,0,0,1.14-.57c.13-.18-.14-.89-.41-1-.48-.26-1.12-1.11-1.65,0Zm-3.14,2c-.07.4-.23,1.14-.21,1.15,1.2.3,1.25,1.27,1.48,2.23a5.51,5.51,0,0,0,1,1.6c-.52-1.81-.14-4-2.3-5,1.76.2,1.81.18,2-.79-1.41.74-3,.6-3.13-.16l1.68-.3V20.7l-2.37.58.58.81L14,23.84c-1.25.29-1.44.14-1.45-1.13l.83-.12,0-.17-.84-.3,1.19-.91-.22-.39c-.49.23-1,.45-1.47.7s-.75.33-.7-.36l0,0c1.34-.31,1.63-.69,1.59-2,0-.43,0-.86,0-1.29,0-1.57,0-3.13,0-4.79h3l.8-3.81a7.81,7.81,0,0,1-1.7.3c-1.91-.1-3.81-.46-5.7-.4-2.38.08-4.63.68-5.76,3.32.49.06,1,.13,1.4.17s.94,0,1.39.12C7.65,13,8,13.68,7.43,15c-1-1.77-1.63-2.17-2.52-1.68-.49.27-1,2.62-.55,3,.95.81,1.7-.06,2.7-.72-.52,1.07-.74,1.86.26,2.42.11.06,0,.43.06.66A2.22,2.22,0,0,1,6.18,21C7.11,21.34,8,21.7,9,22s2,.5,3.12.75c-.07.52-.34,1.38.65,1.54A20.87,20.87,0,0,0,15.72,24.3Zm10-19.89c-.16-.17-.42-.71-.8-.81a11.22,11.22,0,0,0-2.53-.29c-1.74-.08-2.38.64-2,2.36.13.58.64,1.39,1.11,1.5A5.46,5.46,0,0,0,24,7C25.08,6.68,25.56,5.84,25.71,4.41Zm-5.61,6c.37-1.63.25-2-.64-2.34-.52,2.32-.52,2.32.79,3l-.73.51C22.26,13,23.39,13,24,12ZM4.18,16.69a18.7,18.7,0,0,0-.3,2.66c0,.38.43,1.07.61,1.06a2.94,2.94,0,0,0,1.81-.64,1.7,1.7,0,0,0,0-1.64A9,9,0,0,0,4.18,16.69ZM20.34,18l-3.75-4.6a9.07,9.07,0,0,1-.06,2.88c-.51,1.36-.58,1.64.82,2.93l-.23-4.32C18.06,16.89,19.26,18.12,20.34,18ZM4.05,24.59c1.08-.43,1.91-2.32,1.21-3.3-.29-.42-1.21-.39-1.84-.56A3.81,3.81,0,0,0,3.22,22C3.41,22.85,3.75,23.68,4.05,24.59Zm12-5.69a9.86,9.86,0,0,0-1.3-1.5,1.12,1.12,0,0,0-1,.23,7.17,7.17,0,0,0-.22,2.3c0,.29.56.72.91.77C15.31,20.84,15.83,20.17,16.06,18.9Zm-2.43-3.14c.34.38.63,1,1,1.08a1.52,1.52,0,0,0,1.57-1.73c0-.68-.13-1.52-1.12-1.45C14,13.75,13.88,14.65,13.63,15.76Zm8.86-4.48L24.36,11c-.07-.26-.09-.72-.23-.76C23.44,10,22.74,10,22.49,11.28Zm1.75,3.37.25.38L26,14.2c-.2-.32-.37-.88-.59-.9C24.52,13.23,24.42,14,24.24,14.65Zm-.56,12.91c-.39.32-.78.52-.75.63a14.91,14.91,0,0,0,.51,1.73l.35-.08ZM28.4,11.1l.84-.79c-.27-.16-.54-.45-.81-.44s-.61.3-.91.46Z" transform="translate(0.08)"/><path class="cls-1" d="M11.34,21.16c-.05.69.28.58.7.36s1-.47,1.47-.7l.22.39-1.19.91.84.3,0,.17-.83.12c0,1.27.2,1.42,1.45,1.13l.45-1.75-.58-.81,2.37-.58v2.35l-1.68.3c.11.76,1.72.9,3.13.16-.14,1-.19,1-2,.79h0a19.61,19.61,0,0,1-3,0c-1-.16-.72-1-.65-1.54C11,22.47,10,22.26,9,22S7.11,21.34,6.18,21a2.22,2.22,0,0,0,1.2-2.3c0-.23,0-.6-.06-.66-1-.56-.78-1.35-.26-2.42-1,.66-1.75,1.53-2.7.72-.45-.39.06-2.74.55-3,.89-.49,1.5-.09,2.52,1.68.53-1.36.22-2-1.1-2.22-.45-.08-.93-.07-1.39-.12s-.91-.11-1.4-.17C4.67,9.89,6.92,9.29,9.3,9.21c1.89-.06,3.79.3,5.7.4a7.81,7.81,0,0,0,1.7-.3l-.8,3.81h-3c0,1.66,0,3.22,0,4.79,0,.43,0,.86,0,1.29,0,1.3-.25,1.68-1.59,2a10.74,10.74,0,0,0,1.12-6.49,2.08,2.08,0,0,0-1.69-2A1.85,1.85,0,0,0,8.5,14a11.86,11.86,0,0,0-.75,3.15C7.46,20.87,8.06,21.44,11.34,21.16Z" transform="translate(0.08)"/><path class="cls-1" d="M25.71,4.41C25.56,5.84,25.08,6.68,24,7a5.46,5.46,0,0,1-2.52.21c-.47-.11-1-.92-1.11-1.5-.4-1.72.24-2.44,2-2.36a11.22,11.22,0,0,1,2.53.29C25.29,3.7,25.55,4.24,25.71,4.41Z" transform="translate(0.08)"/><path class="cls-1" d="M20.1,10.42,24,12c-.62,1-1.75,1-4.49-.43l.73-.51c-1.31-.67-1.31-.67-.79-3C20.35,8.41,20.47,8.79,20.1,10.42Z" transform="translate(0.08)"/><path class="cls-1" d="M4.18,16.69a9,9,0,0,1,2.14,1.44,1.7,1.7,0,0,1,0,1.64,2.94,2.94,0,0,1-1.81.64c-.18,0-.59-.68-.61-1.06A18.7,18.7,0,0,1,4.18,16.69Z" transform="translate(0.08)"/><path class="cls-1" d="M20.34,18c-1.08.15-2.28-1.08-3.22-3.11l.23,4.32c-1.4-1.29-1.33-1.57-.82-2.93a9.07,9.07,0,0,0,.06-2.88Z" transform="translate(0.08)"/><path class="cls-1" d="M4.05,24.59c-.3-.91-.64-1.74-.83-2.6a3.81,3.81,0,0,1,.2-1.26c.63.17,1.55.14,1.84.56C6,22.27,5.13,24.16,4.05,24.59Z" transform="translate(0.08)"/><path class="cls-1" d="M16.06,18.9c-.23,1.27-.75,1.94-1.61,1.8-.35-.05-.88-.48-.91-.77a7.17,7.17,0,0,1,.22-2.3,1.12,1.12,0,0,1,1-.23A9.86,9.86,0,0,1,16.06,18.9Z" transform="translate(0.08)"/><path class="cls-1" d="M13.63,15.76c.25-1.11.32-2,1.47-2.1,1-.07,1.07.77,1.12,1.45a1.52,1.52,0,0,1-1.57,1.73C14.26,16.78,14,16.14,13.63,15.76Z" transform="translate(0.08)"/><path class="cls-1" d="M15.72,24.3c2.16.94,1.78,3.17,2.3,5a5.51,5.51,0,0,1-1-1.6c-.23-1-.28-1.93-1.48-2.23,0,0,.14-.75.22-1.16Z" transform="translate(0.08)"/><path class="cls-1" d="M18.82,22.34c.53-1.11,1.17-.26,1.65,0,.27.15.54.86.41,1a1.48,1.48,0,0,1-1.14.57c-1.35-.1-1.5-.44-.88-1.65-.3.92.27,1.22,1,1.25.21,0,.44-.35.66-.54l-1.47-.67A.59.59,0,0,0,18.82,22.34Z" transform="translate(0.08)"/><path class="cls-1" d="M22.49,11.28c.25-1.32,1-1.28,1.64-1.09.14,0,.16.5.23.76Z" transform="translate(0.08)"/><path class="cls-1" d="M24.24,14.65c.18-.64.28-1.42,1.2-1.35.22,0,.39.58.59.9L24.49,15Z" transform="translate(0.08)"/><path class="cls-1" d="M23.68,27.56l.11,2.28-.35.08a14.91,14.91,0,0,1-.51-1.73C22.9,28.08,23.29,27.88,23.68,27.56Z" transform="translate(0.08)"/><path class="cls-1" d="M28.4,11.1l-.88-.77c.3-.16.6-.45.91-.46s.54.28.81.44Z" transform="translate(0.08)"/><path d="M11.34,21.16c-3.28.28-3.88-.29-3.59-4A11.86,11.86,0,0,1,8.5,14a1.85,1.85,0,0,1,2.24-1.26,2.08,2.08,0,0,1,1.69,2,10.74,10.74,0,0,1-1.12,6.49Zm.51-5.36a5.44,5.44,0,0,0-.15-1c-.23-.67-.26-1.59-1.25-1.6s-1.39.72-1.52,1.61a21.14,21.14,0,0,0-.42,3.24,4.26,4.26,0,0,0,.68,2.22c.59.88,1.54.71,1.82-.32C11.39,18.58,11.58,17.16,11.85,15.8Z" transform="translate(0.08)"/><path d="M18.82,22.34a.59.59,0,0,1,.23,0l1.47.67c-.22.19-.45.55-.66.54-.73,0-1.3-.33-1-1.25Z" transform="translate(0.08)"/><path class="cls-1" d="M11.85,15.8c-.27,1.36-.46,2.78-.84,4.16-.28,1-1.23,1.2-1.82.32a4.26,4.26,0,0,1-.68-2.22,21.14,21.14,0,0,1,.42-3.24c.13-.89.53-1.61,1.52-1.61s1,.93,1.25,1.6A5.44,5.44,0,0,1,11.85,15.8Z" transform="translate(0.08)"/></svg>