<svg id="Layer_1" data-name="Layer 1" xmlns="http://www.w3.org/2000/svg" width="143" height="135" viewBox="0 0 143 135"><defs><style>.cls-1{fill:#fff;}</style></defs><path class="cls-1" d="M143,135H0V0H143ZM64.63,91.15c2.9,5.1,5.59,6.36,10.51,3.83,5.53-2.85,10.72-6.37,17.64-10.56-2.17,12.81-4.12,24.29-6.07,35.77l1.62.7,8.27-3.67.23.4-10.31,8.32c3.87,3.81,7.21,3.43,10.77,1.53q18-9.57,36-19.07c3.37-1.77,6.23-4,4.18-8.17s-5.65-4.23-9.41-2.36c-5.2,2.59-10.37,5.23-15.49,8-4.26,2.28-8.45,4.71-13.43,7.5,1.11-5.81,2.14-10.46,2.86-15.16.76-4.9,1.17-9.85,1.83-14.76.59-4.3.78-9.11-3.33-11.16-2.74-1.37-7-.7-10.22.17-2.92.78-5.43,3.1-8.15,4.68-1.45.85-3,1.58-4.91,2.61,2.67-13.54,10-25.85,16.36-27.51.38,1.91.64,3.85,1.17,5.7,1,3.36,3,5.55,6.82,5.26s5.51-2.82,5.21-6a51.91,51.91,0,0,0-2.75-13c-1.42-3.85-4.86-6.3-9.14-5.22-4.57,1.15-9.4,2.47-13.25,5-5.42,3.59-10,8.39-15,12.67a46.12,46.12,0,0,1,4.68-11.7c2-3.39,3.25-6.78-.38-9.21-3.11-2.09-6.35-1.2-9.23,1.91-3.56,3.85-7.81,7.06-11.77,10.54a14.23,14.23,0,0,1,2.39-5.85C56.84,35.56,61.75,29,65.9,22.05,71,13.43,67,6.46,57.1,6.89A93.73,93.73,0,0,0,16.21,18.2,50.3,50.3,0,0,0,7,24.74c-2.4,2.11-2.65,4.94-.34,7.54s4.85,2.11,7.66.74C22,29.27,29.6,25.27,37.56,22.15c4.82-1.88,10.21-2.29,15.34-3.37a14.2,14.2,0,0,1-2.27,5.47c-5,8.45-10.14,16.81-14.87,25.41-1.55,2.83-2,6.26-3,9.41l1.5.92,8.64-4.66.23.45L32,66.13c9.73,6.58,14.59-3,21.48-4.59a6.94,6.94,0,0,0-.2,2c.36,1.68.86,3.33,1.31,5a49.17,49.17,0,0,0,4.59-2.14,23,23,0,0,0,2.94-2.42L62.89,65l-9.54,8.07C55.62,79,60.78,77,65.85,76.6V88.12l7.73-3.91.58,1.2ZM8.49,97.94c.22,3.44,1.29,5.79,4.9,6.16,3.79.37,5.94-1.62,6.71-5.2,1.66-7.76,3.15-15.55,4.94-23.28,2-8.55,4.26-17,6.31-25.58.85-3.55.21-6.89-3.7-8-3.65-1.05-5.91.74-6.82,4.59-1.29,5.5-3.1,10.87-4.4,16.36C13.68,74.61,11.12,86.28,8.49,97.94Zm105.93-2.79c3.93,0,14.66-8.09,15.54-11.3,1.16-4.18-2.82-8.46-6.91-6.79-5.81,2.37-11.22,5.54-12.52,12.74C109.82,93.73,111.79,94.8,114.42,95.15ZM89.72,9l.91,1.16c-2.76,2.5-5.78,4.78-8.16,7.59-1.15,1.36-1.11,3.73-1.61,5.64,2.34-.06,5.46.8,6.85-.38a35.49,35.49,0,0,0,7.68-9.61c.71-1.28-.28-4.45-1.55-5.63s-4.65-1.87-5.65-1c-3.33,2.76-6,6.31-8.92,9.56l.82.64Z"/><path d="M64.63,91.15l9.53-5.74-.58-1.2-7.73,3.91V76.6C60.78,77,55.62,79,53.35,73.07L62.89,65l-.79-1.06a23,23,0,0,1-2.94,2.42,49.17,49.17,0,0,1-4.59,2.14c-.45-1.67-1-3.32-1.31-5a6.94,6.94,0,0,1,.2-2C46.57,63.13,41.71,72.71,32,66.13L43.14,55.78l-.23-.45L34.27,60l-1.5-.92c1-3.15,1.44-6.58,3-9.41,4.73-8.6,9.87-17,14.87-25.41a14.2,14.2,0,0,0,2.27-5.47c-5.13,1.08-10.52,1.49-15.34,3.37C29.6,25.27,22,29.27,14.27,33c-2.81,1.37-5.36,1.85-7.66-.74S4.55,26.85,7,24.74a50.3,50.3,0,0,1,9.26-6.54A93.73,93.73,0,0,1,57.1,6.89C67,6.46,71,13.43,65.9,22.05c-4.15,7-9.06,13.51-13.57,20.27a14.23,14.23,0,0,0-2.39,5.85c4-3.48,8.21-6.69,11.77-10.54,2.88-3.11,6.12-4,9.23-1.91,3.63,2.43,2.38,5.82.38,9.21a46.12,46.12,0,0,0-4.68,11.7c5-4.28,9.6-9.08,15-12.67,3.85-2.55,8.68-3.87,13.25-5,4.28-1.08,7.72,1.37,9.14,5.22a51.91,51.91,0,0,1,2.75,13c.3,3.23-1.45,5.76-5.21,6s-5.85-1.9-6.82-5.26c-.53-1.85-.79-3.79-1.17-5.7-6.41,1.66-13.69,14-16.36,27.51,1.94-1,3.46-1.76,4.91-2.61,2.72-1.58,5.23-3.9,8.15-4.68,3.26-.87,7.48-1.54,10.22-.17,4.11,2,3.92,6.86,3.33,11.16-.66,4.91-1.07,9.86-1.83,14.76-.72,4.7-1.75,9.35-2.86,15.16,5-2.79,9.17-5.22,13.43-7.5,5.12-2.73,10.29-5.37,15.49-8,3.76-1.87,7.39-1.71,9.41,2.36s-.81,6.4-4.18,8.17q-18,9.5-36,19.07c-3.56,1.9-6.9,2.28-10.77-1.53l10.31-8.32-.23-.4-8.27,3.67-1.62-.7c2-11.48,3.9-23,6.07-35.77C85.86,88.61,80.67,92.13,75.14,95,70.22,97.51,67.53,96.25,64.63,91.15Zm-7.31-78,.57-1.27c-1.26-.61-2.53-1.8-3.77-1.76-13.25.4-25.46,4.55-37.08,10.78C30,16,43.13,11.85,57.32,13.19ZM85.39,53.28c5-3.45,7.42-10.14,14.82-8.37C94.35,41.52,89.15,44.6,85.39,53.28ZM126.08,101l.17,2,8.31-.53-.15-2.07Z"/><path d="M8.49,97.94c2.63-11.66,5.19-23.33,7.94-35,1.3-5.49,3.11-10.86,4.4-16.36C21.74,42.77,24,41,27.65,42c3.91,1.12,4.55,4.46,3.7,8C29.3,58.58,27,67.07,25,75.62c-1.79,7.73-3.28,15.52-4.94,23.28-.77,3.58-2.92,5.57-6.71,5.2C9.78,103.73,8.71,101.38,8.49,97.94Z"/><path d="M114.42,95.15c-2.63-.35-4.6-1.42-3.89-5.35,1.3-7.2,6.71-10.37,12.52-12.74,4.09-1.67,8.07,2.61,6.91,6.79C129.08,87.06,118.35,95.16,114.42,95.15Z"/><path d="M89.72,9l-9.63,7.93-.82-.64c2.92-3.25,5.59-6.8,8.92-9.56,1-.83,4.41-.11,5.65,1s2.26,4.35,1.55,5.63A35.49,35.49,0,0,1,87.71,23c-1.39,1.18-4.51.32-6.85.38.5-1.91.46-4.28,1.61-5.64,2.38-2.81,5.4-5.09,8.16-7.59Z"/><path class="cls-1" d="M57.32,13.19C43.13,11.85,30,16,17,20.94c11.62-6.23,23.83-10.38,37.08-10.78,1.24,0,2.51,1.15,3.77,1.76Z"/><path class="cls-1" d="M85.39,53.28c3.76-8.68,9-11.76,14.82-8.37C92.81,43.14,90.42,49.83,85.39,53.28Z"/><path class="cls-1" d="M126.08,101l8.33-.62.15,2.07-8.31.53Z"/></svg>